<?xml version="1.0" encoding="UTF-8"?>
<!DOCTYPE svg PUBLIC "-//W3C//DTD SVG 1.1//EN" "http://www.w3.org/Graphics/SVG/1.1/DTD/svg11.dtd">
<svg xmlns="http://www.w3.org/2000/svg" xmlns:xlink="http://www.w3.org/1999/xlink" version="1.1" width="1592px" height="870px" viewBox="-0.5 -0.5 1592 870"><defs/><g><g><rect x="45" y="0" width="850" height="45" fill="none" stroke="none" pointer-events="all"/></g><g><g transform="translate(-0.5 -0.5)"><switch><foreignObject pointer-events="none" width="100%" height="100%" requiredFeatures="http://www.w3.org/TR/SVG11/feature#Extensibility" style="overflow: visible; text-align: left;"><div xmlns="http://www.w3.org/1999/xhtml" style="display: flex; align-items: unsafe center; justify-content: unsafe flex-start; width: 848px; height: 1px; padding-top: 23px; margin-left: 47px;"><div data-drawio-colors="color: #312D2A; " style="box-sizing: border-box; font-size: 0px; text-align: left;"><div style="display: inline-block; font-size: 26px; font-family: Helvetica; color: rgb(49, 45, 42); line-height: 1.2; pointer-events: all; font-weight: bold; white-space: normal; overflow-wrap: normal;">OCI multiregion resource tagging</div></div></div></foreignObject><text x="47" y="30" fill="#312D2A" font-family="Helvetica" font-size="26px" font-weight="bold">OCI multiregion resource tagging</text></switch></g></g><g><rect x="47" y="45" width="900" height="30" fill="none" stroke="none" pointer-events="all"/></g><g><g transform="translate(-0.5 -0.5)"><switch><foreignObject pointer-events="none" width="100%" height="100%" requiredFeatures="http://www.w3.org/TR/SVG11/feature#Extensibility" style="overflow: visible; text-align: left;"><div xmlns="http://www.w3.org/1999/xhtml" style="display: flex; align-items: unsafe center; justify-content: unsafe flex-start; width: 898px; height: 1px; padding-top: 60px; margin-left: 49px;"><div data-drawio-colors="color: #5B5652; " style="box-sizing: border-box; font-size: 0px; text-align: left;"><div style="display: inline-block; font-size: 13px; font-family: Helvetica; color: rgb(91, 86, 82); line-height: 1.2; pointer-events: all; white-space: normal; overflow-wrap: normal;">Dry-run by default • free-form and defined tags • bounded concurrency • ETag-protected updates</div></div></div></foreignObject><text x="49" y="64" fill="#5B5652" font-family="Helvetica" font-size="13px">Dry-run by default • free-form and defined tags • bounded concurrency • ETag-protected updates</text></switch></g></g><g><rect x="75" y="180" width="76" height="84" fill="none" stroke="none" pointer-events="all"/></g><g><path d="M 76.02 263 L 76.02 249 C 76 244.44 77.68 240.03 80.74 236.62 C 83.79 233.22 88.02 231.06 92.58 230.56 C 90.79 228.86 89.25 226.9 88.05 224.74 L 87.53 223.82 L 95.59 190.64 C 96.51 187.84 98.3 185.4 100.7 183.67 C 103.11 181.94 105.99 181.01 108.96 181 L 117.02 181 C 119.96 181.05 122.82 181.99 125.2 183.71 C 127.58 185.44 129.35 187.86 130.3 190.62 L 130.56 191.56 L 138.48 223.78 L 137.95 224.7 C 136.76 226.86 135.24 228.84 133.44 230.54 C 138 231.04 142.22 233.2 145.27 236.6 C 148.32 240.01 150 244.4 149.99 248.96 L 149.99 262.96 L 76.02 263 L 76.02 263" fill="#ffffff" stroke="none" pointer-events="all"/></g><g><path d="M 117.04 182 C 119.92 182.05 122.72 183.03 124.99 184.8 C 127.26 186.58 128.88 189.04 129.61 191.82 L 137.4 223.62 L 137.05 224.22 C 135.52 227.05 133.36 229.48 130.74 231.36 L 130.88 231.36 C 133.24 231.3 135.59 231.71 137.78 232.57 C 139.98 233.42 141.98 234.71 143.67 236.36 C 145.35 237.99 146.69 239.95 147.61 242.11 C 148.52 244.28 148.99 246.6 148.99 248.94 L 148.99 262 L 77.04 262 L 77.04 248.94 C 77.04 246.6 77.51 244.28 78.42 242.11 C 79.33 239.95 80.67 237.99 82.36 236.36 C 84.05 234.71 86.05 233.42 88.25 232.57 C 90.44 231.71 92.79 231.3 95.15 231.36 L 95.33 231.36 C 92.71 229.48 90.54 227.05 89.01 224.22 L 88.66 223.62 L 96.36 191.8 C 97.08 189.02 98.7 186.56 100.98 184.79 C 103.25 183.02 106.05 182.04 108.93 182 L 116.97 182 L 117.04 182 L 117.04 182 M 116.97 180 L 108.93 180 C 105.95 180.05 103.06 180.97 100.6 182.65 C 98.16 184.33 96.26 186.69 95.15 189.44 L 94.97 189.44 L 94.46 191.44 L 86.64 223.16 L 86.44 223.92 L 86.84 224.62 L 87.1 225.2 C 88.03 226.87 89.14 228.43 90.42 229.86 C 86.04 230.8 82.12 233.21 79.32 236.68 C 76.51 240.16 75 244.49 75.03 248.94 L 75.03 264 L 150.98 264 L 150.98 248.94 C 151 244.48 149.47 240.14 146.66 236.67 C 143.85 233.2 139.91 230.79 135.53 229.86 C 136.8 228.43 137.92 226.86 138.87 225.2 L 139.21 224.62 L 139.61 223.92 L 139.41 223.14 L 131.6 191.34 L 131.12 189.34 L 130.92 189.34 C 129.78 186.6 127.86 184.26 125.39 182.6 C 122.92 180.94 120.01 180.03 117.04 180 L 116.97 180 L 116.97 180" fill="#ffffff" stroke="none" pointer-events="all"/></g><g><path d="M 130.99 231.36 L 130.84 231.36 C 133.47 229.49 135.63 227.05 137.17 224.22 L 137.51 223.62 L 129.7 191.8 C 128.96 189.02 127.33 186.55 125.05 184.78 C 122.76 183.02 119.96 182.04 117.06 182 L 109 182 C 106.12 182.05 103.32 183.03 101.06 184.81 C 98.79 186.58 97.17 189.05 96.45 191.82 L 88.57 223.62 L 88.92 224.22 C 90.45 227.05 92.62 229.49 95.24 231.36 L 95.14 231.36 C 92.78 231.3 90.43 231.71 88.22 232.57 C 86.02 233.43 84.02 234.72 82.33 236.36 C 80.64 238 79.3 239.96 78.38 242.13 C 77.47 244.29 77 246.62 77.01 248.96 L 77.01 262 L 80.43 262 L 80.43 248.96 C 80.43 247.06 80.82 245.18 81.56 243.43 C 82.31 241.69 83.4 240.1 84.77 238.78 C 86.14 237.46 87.76 236.42 89.54 235.73 C 91.33 235.04 93.23 234.71 95.14 234.76 L 103.2 234.76 C 103.52 237.12 104.7 239.29 106.51 240.86 C 108.32 242.42 110.64 243.29 113.04 243.29 C 115.45 243.29 117.77 242.42 119.57 240.86 C 121.39 239.29 122.56 237.12 122.89 234.76 L 130.94 234.76 C 132.85 234.72 134.74 235.06 136.52 235.75 C 138.29 236.45 139.9 237.49 141.26 238.81 C 142.63 240.14 143.71 241.71 144.45 243.46 C 145.18 245.2 145.57 247.07 145.57 248.96 L 145.57 262 L 149 262 L 149 248.96 C 149 246.62 148.53 244.29 147.62 242.13 C 146.7 239.97 145.36 238.01 143.66 236.37 C 141.98 234.73 139.98 233.44 137.78 232.58 C 135.58 231.72 133.22 231.3 130.86 231.36 L 130.99 231.36 L 130.99 231.36 M 99.31 205.86 L 99.31 200 C 100.16 200.2 101.02 200.33 101.89 200.38 C 105.92 200.59 109.9 199.3 113.01 196.74 C 115.9 199.08 119.5 200.37 123.22 200.4 L 124.15 200.4 C 125.02 200.34 125.89 200.21 126.73 200 L 126.73 205.84 C 126.79 207.68 126.49 209.52 125.82 211.25 C 125.17 212.97 124.17 214.55 122.89 215.89 C 121.62 217.23 120.09 218.31 118.39 219.06 C 116.7 219.82 114.87 220.23 113.01 220.28 C 111.16 220.23 109.33 219.82 107.64 219.06 C 105.94 218.3 104.41 217.22 103.14 215.89 C 101.87 214.54 100.88 212.97 100.22 211.24 C 99.56 209.52 99.26 207.68 99.31 205.84 L 99.31 205.86 L 99.31 205.86 M 122.89 230.92 L 122.89 220.42 C 124.91 218.92 126.59 217.01 127.83 214.82 C 129.07 212.64 129.83 210.22 130.08 207.72 L 133.84 223.1 C 132.7 225.12 131.12 226.86 129.23 228.22 C 127.34 229.57 125.18 230.5 122.89 230.94 L 122.89 230.92 L 122.89 230.92 M 108.94 185.4 L 117 185.4 C 119.64 185.5 122.13 186.63 123.94 188.54 C 125.74 190.45 126.73 192.98 126.67 195.6 L 126.67 196.52 C 124.48 197.14 122.15 197.18 119.95 196.6 C 117.74 196.03 115.72 194.87 114.12 193.26 L 112.95 192.22 L 111.8 193.26 C 110.2 194.87 108.19 196.03 105.98 196.61 C 103.77 197.18 101.44 197.15 99.25 196.52 L 99.25 195.6 C 99.2 192.98 100.17 190.46 101.97 188.55 C 103.77 186.65 106.25 185.51 108.88 185.4 L 108.94 185.4 L 108.94 185.4 M 92.22 223.1 L 95.96 207.78 C 96.22 210.27 96.99 212.68 98.24 214.86 C 99.49 217.03 101.17 218.93 103.2 220.42 L 103.2 230.94 C 100.91 230.5 98.75 229.57 96.86 228.21 C 94.97 226.86 93.4 225.11 92.26 223.1 L 92.22 223.1 L 92.22 223.1 M 113.05 239.84 C 111.43 239.84 109.88 239.24 108.67 238.16 C 107.48 237.08 106.72 235.6 106.56 234 L 106.56 222.38 C 108.6 223.25 110.8 223.7 113.02 223.7 C 115.24 223.7 117.44 223.25 119.48 222.38 L 119.48 234 C 119.32 235.6 118.58 237.09 117.38 238.18 C 116.19 239.26 114.63 239.86 113.01 239.88" fill="#2c5967" stroke="none" pointer-events="all"/></g><g><path d="M 17 84 L 59 84 L 59 64 L 17 64 L 17 84" fill="none" stroke="none" pointer-events="all"/></g><g><rect x="45" y="260" width="120" height="35" fill="none" stroke="none" pointer-events="all"/></g><g><g transform="translate(-0.5 -0.5)"><switch><foreignObject pointer-events="none" width="100%" height="100%" requiredFeatures="http://www.w3.org/TR/SVG11/feature#Extensibility" style="overflow: visible; text-align: left;"><div xmlns="http://www.w3.org/1999/xhtml" style="display: flex; align-items: unsafe flex-start; justify-content: unsafe center; width: 118px; height: 1px; padding-top: 267px; margin-left: 46px;"><div data-drawio-colors="color: #312D2A; " style="box-sizing: border-box; font-size: 0px; text-align: center;"><div style="display: inline-block; font-size: 12px; font-family: Helvetica; color: rgb(49, 45, 42); line-height: 1.2; pointer-events: all; white-space: normal; overflow-wrap: normal;">Operator</div></div></div></foreignObject><text x="105" y="279" fill="#312D2A" font-family="Helvetica" font-size="12px" text-anchor="middle">Operator</text></switch></g></g><g><rect x="220" y="140" width="250" height="135" rx="10.8" ry="10.8" fill="#ffffff" stroke="#c74634" stroke-width="2" pointer-events="all"/></g><g><g transform="translate(-0.5 -0.5)"><switch><foreignObject pointer-events="none" width="100%" height="100%" requiredFeatures="http://www.w3.org/TR/SVG11/feature#Extensibility" style="overflow: visible; text-align: left;"><div xmlns="http://www.w3.org/1999/xhtml" style="display: flex; align-items: unsafe flex-start; justify-content: unsafe center; width: 248px; height: 1px; padding-top: 159px; margin-left: 221px;"><div data-drawio-colors="color: #312D2A; " style="box-sizing: border-box; font-size: 0px; text-align: center;"><div style="display: inline-block; font-size: 15px; font-family: Helvetica; color: rgb(49, 45, 42); line-height: 1.2; pointer-events: all; font-weight: bold; white-space: normal; overflow-wrap: normal;">Go tagging CLI</div></div></div></foreignObject><text x="345" y="174" fill="#312D2A" font-family="Helvetica" font-size="15px" text-anchor="middle" font-weight="bold">Go tagging CLI</text></switch></g></g><g><rect x="245" y="185" width="200" height="68" fill="none" stroke="none" pointer-events="all"/></g><g><g transform="translate(-0.5 -0.5)"><switch><foreignObject pointer-events="none" width="100%" height="100%" requiredFeatures="http://www.w3.org/TR/SVG11/feature#Extensibility" style="overflow: visible; text-align: left;"><div xmlns="http://www.w3.org/1999/xhtml" style="display: flex; align-items: unsafe center; justify-content: unsafe flex-start; width: 198px; height: 1px; padding-top: 219px; margin-left: 247px;"><div data-drawio-colors="color: #5B5652; " style="box-sizing: border-box; font-size: 0px; text-align: left;"><div style="display: inline-block; font-size: 13px; font-family: Helvetica; color: rgb(91, 86, 82); line-height: 1.2; pointer-events: all; white-space: normal; overflow-wrap: normal;">OCI SDK authentication<br />Region discovery<br />Region worker pool</div></div></div></foreignObject><text x="247" y="223" fill="#5B5652" font-family="Helvetica" font-size="13px">OCI SDK authentication...</text></switch></g></g><g><rect x="560" y="125" width="84" height="79" fill="none" stroke="none" pointer-events="all"/></g><g><path d="M 622.35 201.4 C 611.68 196.1 605.3 187.76 604.78 178.6 L 604.78 170.6 L 560 170.6 L 560 125 L 625.77 125 L 625.77 154.51 L 642 161.54 L 642 178.62 C 641.48 187.86 635.07 196.17 624.44 201.48 L 623.4 202 L 622.35 201.4 L 622.35 201.4" fill="#ffffff" stroke="none" pointer-events="all"/></g><g><path d="M 625.86 126.88 L 625.86 156.13 L 642.15 163.1 L 642.15 179.6 C 641.65 188.47 635.44 196.51 625.09 201.67 L 624.47 201.99 L 623.85 201.67 C 613.5 196.51 607.28 188.52 606.75 179.6 L 606.75 170.71 L 561.88 170.71 L 561.88 126.88 L 625.86 126.88 L 625.86 126.88 M 627.75 125 L 560 125 L 560 172.58 L 604.85 172.58 L 604.85 179.45 L 604.85 179.57 C 605.4 189.16 612 197.78 622.96 203.27 L 623.59 203.57 L 624.43 204 L 625.26 203.57 L 625.88 203.27 C 636.85 197.78 643.45 189.16 644 179.63 L 644 161.86 L 642.87 161.37 L 627.75 154.89 L 627.75 125 L 627.75 125" fill="#ffffff" stroke="none" pointer-events="all"/></g><g><path d="M 563.78 128.79 L 622.22 128.79 L 622.22 153.09 L 623.6 152.49 L 625 153.09 L 625 126 L 561 126 L 561 170 L 603.79 170 L 603.79 167.21 L 563.78 167.21 L 563.78 128.79 L 563.78 128.79" fill="#2d5967" stroke="none" pointer-events="all"/></g><g><path d="M 624.5 155 L 607 162.45 L 607 178.81 C 607.5 187.6 613.66 195.56 623.89 200.68 L 624.5 201 L 625.12 200.68 C 635.35 195.56 641.49 187.65 642 178.81 L 642 162.5 L 624.5 155 L 624.5 155 M 639.24 178.72 C 638.83 185.9 634 192.53 625.89 197.19 L 625.89 173.8 L 623.12 173.8 L 623.12 197.22 C 615.01 192.57 610.1 185.94 609.75 178.75 L 609.75 164.31 L 623.12 158.57 L 623.12 170.86 L 625.92 170.86 L 625.92 158.57 L 639.28 164.31 L 639.24 178.72 L 639.24 178.72" fill="#2d5967" stroke="none" pointer-events="all"/></g><g><path d="M 598.95 138.82 L 597 140.78 L 602.14 146 L 612 135.98 L 610.06 134 L 602.14 142.05 L 598.95 138.82 L 598.95 138.82" fill="#2d5967" stroke="none" pointer-events="all"/></g><g><path d="M 610 157.07 L 606.42 153.51 L 610 149.93 L 608.08 148 L 604.51 151.57 L 600.93 148 L 599 149.93 L 602.57 153.51 L 599 157.07 L 600.93 159 L 604.51 155.43 L 608.08 159 L 610 157.07 L 610 157.07" fill="#2d5967" stroke="none" pointer-events="all"/></g><g><path d="M 590 161 L 590 155.39 C 590 154.23 589.49 153.11 588.6 152.29 C 587.71 151.46 586.49 151 585.21 151 L 575.79 151 C 574.51 151 573.29 151.46 572.4 152.29 C 571.51 153.11 571 154.23 571 155.39 L 571 161 L 573.69 161 L 573.69 155.39 C 573.69 155.15 573.75 154.91 573.85 154.69 C 573.95 154.46 574.09 154.26 574.28 154.09 C 574.47 153.91 574.69 153.78 574.93 153.68 C 575.19 153.59 575.45 153.54 575.71 153.54 L 585.14 153.54 C 585.4 153.54 585.67 153.59 585.91 153.69 C 586.15 153.78 586.37 153.91 586.56 154.09 C 586.74 154.26 586.89 154.46 586.99 154.69 C 587.09 154.91 587.14 155.15 587.14 155.39 L 587.14 161 L 590 161 L 590 161" fill="#2d5967" stroke="none" pointer-events="all"/></g><g><path d="M 580.44 148 C 581.72 148 582.96 147.62 584.01 146.91 C 585.08 146.21 585.9 145.2 586.38 144.03 C 586.88 142.85 587 141.55 586.75 140.31 C 586.51 139.06 585.89 137.91 585 137.01 C 584.09 136.11 582.95 135.5 581.7 135.25 C 580.44 135 579.15 135.13 577.98 135.61 C 576.8 136.1 575.8 136.93 575.09 137.99 C 574.38 139.04 574 140.29 574 141.56 C 574 143.27 574.68 144.91 575.89 146.12 C 577.09 147.32 578.73 148 580.44 148 L 580.44 148 M 580.44 137.89 C 581.18 137.89 581.9 138.11 582.52 138.53 C 583.14 138.94 583.62 139.52 583.9 140.21 C 584.18 140.89 584.25 141.64 584.11 142.37 C 583.96 143.09 583.61 143.76 583.08 144.28 C 582.56 144.81 581.89 145.16 581.17 145.31 C 580.44 145.45 579.69 145.38 579.01 145.09 C 578.32 144.81 577.74 144.33 577.33 143.72 C 576.91 143.1 576.69 142.38 576.69 141.64 C 576.69 140.64 577.09 139.69 577.79 138.99 C 578.49 138.29 579.45 137.89 580.44 137.89 L 580.44 137.89" fill="#2d5967" stroke="none" pointer-events="all"/></g><g><path d="M 17 79 L 67 79 L 67 59 L 17 59 L 17 79" fill="none" stroke="none" pointer-events="all"/></g><g><rect x="650" y="138" width="120" height="26" fill="none" stroke="none" pointer-events="all"/></g><g><g transform="translate(-0.5 -0.5)"><switch><foreignObject pointer-events="none" width="100%" height="100%" requiredFeatures="http://www.w3.org/TR/SVG11/feature#Extensibility" style="overflow: visible; text-align: left;"><div xmlns="http://www.w3.org/1999/xhtml" style="display: flex; align-items: unsafe flex-start; justify-content: unsafe center; width: 118px; height: 1px; padding-top: 145px; margin-left: 651px;"><div data-drawio-colors="color: #312D2A; " style="box-sizing: border-box; font-size: 0px; text-align: center;"><div style="display: inline-block; font-size: 12px; font-family: Helvetica; color: rgb(49, 45, 42); line-height: 1.2; pointer-events: all; white-space: normal; overflow-wrap: normal;">OCI IAM</div></div></div></foreignObject><text x="710" y="157" fill="#312D2A" font-family="Helvetica" font-size="12px" text-anchor="middle">OCI IAM</text></switch></g></g><g><rect x="650" y="169" width="130" height="45" fill="none" stroke="none" pointer-events="all"/></g><g><g transform="translate(-0.5 -0.5)"><switch><foreignObject pointer-events="none" width="100%" height="100%" requiredFeatures="http://www.w3.org/TR/SVG11/feature#Extensibility" style="overflow: visible; text-align: left;"><div xmlns="http://www.w3.org/1999/xhtml" style="display: flex; align-items: unsafe flex-start; justify-content: unsafe center; width: 128px; height: 1px; padding-top: 176px; margin-left: 651px;"><div data-drawio-colors="color: #312D2A; " style="box-sizing: border-box; font-size: 0px; text-align: center;"><div style="display: inline-block; font-size: 12px; font-family: Helvetica; color: rgb(49, 45, 42); line-height: 1.2; pointer-events: all; white-space: normal; overflow-wrap: normal;">SDK config or<br />instance principal</div></div></div></foreignObject><text x="715" y="188" fill="#312D2A" font-family="Helvetica" font-size="12px" text-anchor="middle">SDK config or...</text></switch></g></g><g><rect x="535" y="330" width="220" height="75" rx="6" ry="6" fill="#f8f7f6" stroke="#b7b1ac" pointer-events="all"/></g><g><g transform="translate(-0.5 -0.5)"><switch><foreignObject pointer-events="none" width="100%" height="100%" requiredFeatures="http://www.w3.org/TR/SVG11/feature#Extensibility" style="overflow: visible; text-align: left;"><div xmlns="http://www.w3.org/1999/xhtml" style="display: flex; align-items: unsafe flex-start; justify-content: unsafe center; width: 218px; height: 1px; padding-top: 349px; margin-left: 536px;"><div data-drawio-colors="color: #312D2A; " style="box-sizing: border-box; font-size: 0px; text-align: center;"><div style="display: inline-block; font-size: 14px; font-family: Helvetica; color: rgb(49, 45, 42); line-height: 1.2; pointer-events: all; font-weight: bold; white-space: normal; overflow-wrap: normal;">ListRegionSubscriptions<br />status = READY</div></div></div></foreignObject><text x="645" y="363" fill="#312D2A" font-family="Helvetica" font-size="14px" text-anchor="middle" font-weight="bold">ListRegionSubscriptions...</text></switch></g></g><g><rect x="810" y="85" width="780" height="710" rx="56.8" ry="56.8" fill="#f8f7f6" stroke="#b7b1ac" pointer-events="all"/></g><g><rect x="840" y="99" width="230" height="30" fill="none" stroke="none" pointer-events="all"/></g><g><g transform="translate(-0.5 -0.5)"><switch><foreignObject pointer-events="none" width="100%" height="100%" requiredFeatures="http://www.w3.org/TR/SVG11/feature#Extensibility" style="overflow: visible; text-align: left;"><div xmlns="http://www.w3.org/1999/xhtml" style="display: flex; align-items: unsafe center; justify-content: unsafe flex-start; width: 228px; height: 1px; padding-top: 114px; margin-left: 842px;"><div data-drawio-colors="color: #5B5652; " style="box-sizing: border-box; font-size: 0px; text-align: left;"><div style="display: inline-block; font-size: 13px; font-family: Helvetica; color: rgb(91, 86, 82); line-height: 1.2; pointer-events: all; white-space: normal; overflow-wrap: normal;">Subscribed OCI regions</div></div></div></foreignObject><text x="842" y="118" fill="#5B5652" font-family="Helvetica" font-size="13px">Subscribed OCI regions</text></switch></g></g><g><rect x="1090" y="100" width="240" height="34" rx="17" ry="17" fill="#f3f2f1" stroke="#aea8a3" pointer-events="all"/></g><g><g transform="translate(-0.5 -0.5)"><switch><foreignObject pointer-events="none" width="100%" height="100%" requiredFeatures="http://www.w3.org/TR/SVG11/feature#Extensibility" style="overflow: visible; text-align: left;"><div xmlns="http://www.w3.org/1999/xhtml" style="display: flex; align-items: unsafe center; justify-content: unsafe center; width: 238px; height: 1px; padding-top: 117px; margin-left: 1091px;"><div data-drawio-colors="color: #312D2A; " style="box-sizing: border-box; font-size: 0px; text-align: center;"><div style="display: inline-block; font-size: 12px; font-family: Helvetica; color: rgb(49, 45, 42); line-height: 1.2; pointer-events: all; white-space: normal; overflow-wrap: normal;">Region workers (default: 3)</div></div></div></foreignObject><text x="1210" y="121" fill="#312D2A" font-family="Helvetica" font-size="12px" text-anchor="middle">Region workers (default: 3)</text></switch></g></g><g><rect x="850" y="150" width="700" height="285" rx="17.1" ry="17.1" fill="#fff9f7" stroke="#c74634" stroke-width="2" pointer-events="all"/></g><g><g transform="translate(-0.5 -0.5)"><switch><foreignObject pointer-events="none" width="100%" height="100%" requiredFeatures="http://www.w3.org/TR/SVG11/feature#Extensibility" style="overflow: visible; text-align: left;"><div xmlns="http://www.w3.org/1999/xhtml" style="display: flex; align-items: unsafe flex-start; justify-content: unsafe center; width: 698px; height: 1px; padding-top: 167px; margin-left: 851px;"><div data-drawio-colors="color: #312D2A; " style="box-sizing: border-box; font-size: 0px; text-align: center;"><div style="display: inline-block; font-size: 15px; font-family: Helvetica; color: rgb(49, 45, 42); line-height: 1.2; pointer-events: all; font-weight: bold; white-space: normal; overflow-wrap: normal;">Region A</div></div></div></foreignObject><text x="1200" y="182" fill="#312D2A" font-family="Helvetica" font-size="15px" text-anchor="middle" font-weight="bold">Region A</text></switch></g></g><g><rect x="875" y="178" width="105" height="30" rx="2.4" ry="2.4" fill="#c74634" stroke="#c74634" pointer-events="all"/></g><g><g transform="translate(-0.5 -0.5)"><switch><foreignObject pointer-events="none" width="100%" height="100%" requiredFeatures="http://www.w3.org/TR/SVG11/feature#Extensibility" style="overflow: visible; text-align: left;"><div xmlns="http://www.w3.org/1999/xhtml" style="display: flex; align-items: unsafe center; justify-content: unsafe center; width: 103px; height: 1px; padding-top: 193px; margin-left: 876px;"><div data-drawio-colors="color: #FFFFFF; " style="box-sizing: border-box; font-size: 0px; text-align: center;"><div style="display: inline-block; font-size: 12px; font-family: Helvetica; color: rgb(255, 255, 255); line-height: 1.2; pointer-events: all; font-weight: bold; white-space: normal; overflow-wrap: normal;">OCI REGION</div></div></div></foreignObject><text x="928" y="197" fill="#FFFFFF" font-family="Helvetica" font-size="12px" text-anchor="middle" font-weight="bold">OCI REGION</text></switch></g></g><g><rect x="1095" y="185" width="235" height="32" rx="16" ry="16" fill="#f3f2f1" stroke="#aea8a3" pointer-events="all"/></g><g><g transform="translate(-0.5 -0.5)"><switch><foreignObject pointer-events="none" width="100%" height="100%" requiredFeatures="http://www.w3.org/TR/SVG11/feature#Extensibility" style="overflow: visible; text-align: left;"><div xmlns="http://www.w3.org/1999/xhtml" style="display: flex; align-items: unsafe center; justify-content: unsafe center; width: 233px; height: 1px; padding-top: 201px; margin-left: 1096px;"><div data-drawio-colors="color: #312D2A; " style="box-sizing: border-box; font-size: 0px; text-align: center;"><div style="display: inline-block; font-size: 12px; font-family: Helvetica; color: rgb(49, 45, 42); line-height: 1.2; pointer-events: all; white-space: normal; overflow-wrap: normal;">Resource workers (default: 5)</div></div></div></foreignObject><text x="1213" y="205" fill="#312D2A" font-family="Helvetica" font-size="12px" text-anchor="middle">Resource workers (default: 5)</text></switch></g></g><g><rect x="925" y="240" width="575" height="155" rx="6.2" ry="6.2" fill="#ffffff" stroke="#76706b" stroke-dasharray="3 3" pointer-events="all"/></g><g><g transform="translate(-0.5 -0.5)"><switch><foreignObject pointer-events="none" width="100%" height="100%" requiredFeatures="http://www.w3.org/TR/SVG11/feature#Extensibility" style="overflow: visible; text-align: left;"><div xmlns="http://www.w3.org/1999/xhtml" style="display: flex; align-items: unsafe flex-start; justify-content: unsafe center; width: 573px; height: 1px; padding-top: 255px; margin-left: 926px;"><div data-drawio-colors="color: #312D2A; " style="box-sizing: border-box; font-size: 0px; text-align: center;"><div style="display: inline-block; font-size: 13px; font-family: Helvetica; color: rgb(49, 45, 42); line-height: 1.2; pointer-events: all; font-weight: bold; white-space: normal; overflow-wrap: normal;">Target compartment</div></div></div></foreignObject><text x="1213" y="268" fill="#312D2A" font-family="Helvetica" font-size="13px" text-anchor="middle" font-weight="bold">Target compartment</text></switch></g></g><g><rect x="945" y="275" width="84" height="67" fill="none" stroke="none" pointer-events="all"/></g><g><path d="M 945 340.84 L 945 279.66 C 945 277.09 947.09 275 949.66 275 L 970.74 275 C 972.19 275 973.63 275.64 974.44 276.93 L 978.78 282.71 L 1023.34 282.71 C 1025.91 282.71 1028 284.79 1028 287.36 L 1028 341 L 945 341 L 945 340.84 L 945 340.84" fill="#ffffff" stroke="none" pointer-events="all"/></g><g><path d="M 971.4 276.59 C 972.52 276.59 973.8 277.23 974.44 278.19 L 978.91 284.25 L 1023.57 284.25 C 1025.64 284.25 1027.4 286.01 1027.4 288.08 L 1027.4 340.41 L 946.6 340.41 L 946.6 280.43 C 946.6 278.35 948.36 276.59 950.44 276.59 L 971.4 276.59 L 971.4 276.59 M 971.4 275 L 950.44 275 C 947.4 275 945 277.39 945 280.43 L 945 340.41 L 945 342 L 946.6 342 L 1027.4 342 L 1029 342 L 1029 340.41 L 1029 287.92 C 1029 284.89 1026.6 282.5 1023.57 282.5 L 979.73 282.5 L 975.73 277.08 C 974.6 275.8 973.01 275 971.4 275 L 971.4 275" fill="#ffffff" stroke="none" pointer-events="all"/></g><g><path d="M 1023.14 283.68 L 978.39 283.68 L 973.91 277.6 C 973.27 276.64 972.15 276 970.86 276 L 949.86 276 C 947.77 276 946 277.76 946 279.84 L 946 340 L 1027 340 L 1027 287.36 C 1027 285.28 1025.23 283.68 1023.14 283.68 L 1023.14 283.68 M 1023.46 336.64 L 949.37 336.64 L 949.37 279.84 C 949.37 279.68 949.54 279.36 949.86 279.36 L 970.86 279.36 C 971.02 279.36 971.18 279.36 971.18 279.52 L 976.8 287.04 L 1023.31 287.04 C 1023.46 287.04 1023.79 287.2 1023.79 287.52 L 1023.46 336.64 L 1023.46 336.64" fill="#2d5967" stroke="none" pointer-events="all"/></g><g><path d="M 958.79 296 L 962.04 296 L 962.04 291.2 L 967 291.2 L 967 287.95 L 962.04 287.95 L 962.04 283 L 958.79 283 L 958.79 287.95 L 954 287.95 L 954 291.2 L 958.79 291.2 L 958.79 296 L 958.79 296" fill="#2d5967" stroke="none" pointer-events="all"/></g><g><path d="M 1009.66 310.21 L 1006.85 305 L 1004.04 310.21 L 999.66 318.11 L 997 323 L 1002.62 323 L 1011.38 323 L 1017 323 L 1014.19 318.11 L 1009.66 310.21 L 1009.66 310.21 M 1002.47 319.84 L 1006.85 311.95 L 1011.22 319.84 L 1002.47 319.84 L 1002.47 319.84" fill="#2d5967" stroke="none" pointer-events="all"/></g><g><path d="M 992.49 307.25 C 991.04 306.47 989.43 306 987.82 306 C 987.18 306 986.37 306 985.73 306.16 C 980.9 307.25 978 311.93 979.13 316.45 C 980.09 320.35 983.63 323 987.82 323 C 988.46 323 989.27 323 989.92 322.84 C 992.17 322.38 994.1 320.97 995.39 318.95 C 996.68 317.07 997 314.73 996.51 312.4 C 995.87 310.37 994.42 308.5 992.49 307.25 L 992.49 307.25 M 992.49 317.38 C 991.68 318.63 990.56 319.41 989.11 319.72 C 988.63 319.88 988.3 319.88 987.82 319.88 C 985.41 319.88 982.99 318.17 982.51 315.83 C 981.87 313.02 983.63 310.05 986.54 309.43 C 987.01 309.28 987.34 309.28 987.82 309.28 C 988.79 309.28 989.75 309.59 990.72 310.05 C 992.01 310.83 992.82 311.93 993.13 313.33 C 993.46 314.73 993.13 316.14 992.49 317.38 L 992.49 317.38" fill="#2d5967" stroke="none" pointer-events="all"/></g><g><path d="M 971.97 307.57 L 970.99 306 L 969.07 306 L 962.93 306 L 961.01 306 L 960.03 307.57 L 956.97 312.77 L 956 314.5 L 956.97 316.23 L 960.03 321.43 L 961.01 323 L 962.93 323 L 969.07 323 L 970.99 323 L 971.97 321.43 L 975.03 316.23 L 976 314.5 L 975.2 312.77 L 971.97 307.57 L 971.97 307.57 M 969.07 319.7 L 962.93 319.7 L 959.87 314.5 L 962.93 309.3 L 969.07 309.3 L 972.13 314.5 L 969.07 319.7 L 969.07 319.7" fill="#2d5967" stroke="none" pointer-events="all"/></g><g><path d="M 0 67 L 134 67 L 134 47 L 0 47 L 0 67" fill="none" stroke="none" pointer-events="all"/></g><g/><g><rect x="1080" y="280" width="84" height="84" fill="none" stroke="none" pointer-events="all"/></g><g><rect x="1080" y="280" width="84" height="84" fill="none" stroke="none" pointer-events="all"/></g><g><path d="M 1085.39 362.8 C 1082.99 362.8 1081 360.8 1081 358.41 L 1081 285.39 C 1081 282.99 1082.99 281 1085.39 281 L 1158.61 281 C 1161.01 281 1163 282.99 1163 285.39 L 1163 358.61 C 1163 361.01 1161.01 363 1158.61 363 L 1085.39 362.8 L 1085.39 362.8" fill="#ffffff" stroke="none" pointer-events="all"/></g><g><path d="M 1158.41 282 C 1160.21 282 1161.81 283.6 1161.81 285.4 L 1161.81 358.8 C 1161.81 360.6 1160.21 362.2 1158.41 362.2 L 1085.38 362.2 C 1083.59 362 1081.99 360.4 1081.99 358.6 L 1081.99 285.4 C 1081.99 283.6 1083.59 282 1085.38 282 L 1158.41 282 L 1158.41 282 M 1158.41 280 L 1085.38 280 C 1082.39 280 1080 282.4 1080 285.4 L 1080 358.8 C 1080 361.6 1082.39 364 1085.38 364 L 1158.62 364 C 1161.61 364 1164 361.6 1164 358.6 L 1164 285.4 C 1163.8 282.4 1161.4 280 1158.41 280 L 1158.41 280" fill="#ffffff" stroke="none" pointer-events="all"/></g><g><rect x="1082" y="282" width="80" height="80" fill="none" stroke="none" pointer-events="all"/></g><g><path d="M 1158.41 282 L 1085.39 282 C 1083.59 282 1082 283.6 1082 285.4 L 1082 358.8 C 1082 360.4 1083.59 362 1085.39 362 L 1158.61 362 C 1160.41 362 1162 360.4 1162 358.6 L 1162 285.4 C 1161.8 283.6 1160.21 282 1158.41 282 L 1158.41 282 M 1158.81 358.6 C 1158.81 358.8 1158.61 359 1158.41 359 L 1085.39 359 C 1085.19 359 1084.99 358.8 1084.99 358.6 L 1084.99 285.4 C 1084.99 285.2 1085.19 285 1085.39 285 L 1158.61 285 C 1158.81 285 1159.01 285.2 1159.01 285.4 L 1158.81 358.6 L 1158.81 358.6" fill="#2d5967" stroke="none" pointer-events="all"/></g><g><path d="M 1093 350 L 1151 350 L 1151 333 L 1093 333 L 1093 350 L 1093 350 M 1095.79 335.86 L 1147.81 335.86 L 1147.81 347.33 L 1095.79 347.33 L 1095.79 335.86 L 1095.79 335.86" fill="#2d5967" stroke="none" pointer-events="all"/></g><g><path d="M 1141 344 C 1142.1 344 1143 343.1 1143 342 C 1143 340.9 1142.1 340 1141 340 C 1139.89 340 1139 340.9 1139 342 C 1139 343.1 1139.89 344 1141 344 L 1141 344" fill="#2d5967" stroke="none" pointer-events="all"/></g><g><path d="M 1109.81 293 L 1093 293 L 1093 310 L 1110 310 L 1109.81 293 L 1109.81 293 M 1107.13 307.14 L 1095.67 307.14 L 1095.67 295.67 L 1107.13 295.67 L 1107.13 307.14 L 1107.13 307.14" fill="#2d5967" stroke="none" pointer-events="all"/></g><g><path d="M 1130 293 L 1113 293 L 1113 310 L 1130 310 L 1130 293 L 1130 293 M 1127.33 307.14 L 1115.87 307.14 L 1115.87 295.67 L 1127.33 295.67 L 1127.33 307.14 L 1127.33 307.14" fill="#2d5967" stroke="none" pointer-events="all"/></g><g><path d="M 1109.81 313 L 1093 313 L 1093 330 L 1110 330 L 1109.81 313 L 1109.81 313 M 1107.13 327.14 L 1095.67 327.14 L 1095.67 315.67 L 1107.13 315.67 L 1107.13 327.14 L 1107.13 327.14" fill="#2d5967" stroke="none" pointer-events="all"/></g><g><path d="M 1130 313 L 1113 313 L 1113 330 L 1130 330 L 1130 313 L 1130 313 M 1127.33 327.14 L 1115.87 327.14 L 1115.87 315.67 L 1127.33 315.67 L 1127.33 327.14 L 1127.33 327.14" fill="#2d5967" stroke="none" pointer-events="all"/></g><g><path d="M 1150 293 L 1133 293 L 1133 310 L 1150 310 L 1150 293 L 1150 293 M 1147.33 307.14 L 1135.87 307.14 L 1135.87 295.67 L 1147.33 295.67 L 1147.33 307.14 L 1147.33 307.14" fill="#2d5967" stroke="none" pointer-events="all"/></g><g><path d="M 1150 313 L 1133 313 L 1133 330 L 1150 330 L 1150 313 L 1150 313 M 1147.33 327.14 L 1135.87 327.14 L 1135.87 315.67 L 1147.33 315.67 L 1147.33 327.14 L 1147.33 327.14" fill="#2d5967" stroke="none" pointer-events="all"/></g><g><path d="M 1084 410 L 1160 410 L 1160 369 L 1084 369 L 1084 410" fill="none" stroke="none" pointer-events="all"/></g><g/><g><rect x="1264" y="280" width="84" height="84" fill="none" stroke="none" pointer-events="all"/></g><g><rect x="1264" y="280" width="84" height="84" fill="none" stroke="none" pointer-events="all"/></g><g><path d="M 1269.39 362.8 C 1266.99 362.8 1265 360.8 1265 358.41 L 1265 285.39 C 1265 282.99 1266.99 281 1269.39 281 L 1342.61 281 C 1345.01 281 1347 282.99 1347 285.39 L 1347 358.61 C 1347 361.01 1345.01 363 1342.61 363 L 1269.39 362.8 L 1269.39 362.8" fill="#ffffff" stroke="none" pointer-events="all"/></g><g><path d="M 1342.41 282 C 1344.21 282 1345.81 283.6 1345.81 285.4 L 1345.81 287.4 L 1345.81 287.8 L 1345.81 358.8 C 1345.81 360.6 1344.21 362.2 1342.41 362.2 L 1269.38 362.2 C 1267.6 362 1266 360.4 1266 358.6 L 1266 287.8 L 1266 287.2 L 1266 285.2 C 1266 283.6 1267.6 282 1269.38 282 L 1342.41 282 L 1342.41 282 M 1342.41 280 L 1269.38 280 C 1266.39 280 1264 282.4 1264 285.4 L 1264 287.4 L 1264 287.8 L 1264 358.8 C 1264 361.6 1266.39 364 1269.38 364 L 1342.62 364 C 1345.61 364 1348 361.6 1348 358.6 L 1348 287.8 L 1348 287.2 L 1348 285.2 C 1347.8 282.4 1345.4 280 1342.41 280 L 1342.41 280" fill="#ffffff" stroke="none" pointer-events="all"/></g><g><rect x="1266" y="282" width="80" height="80" fill="none" stroke="none" pointer-events="all"/></g><g><path d="M 1303 299 L 1278 299 L 1278 323 L 1303 323 L 1303 299 L 1303 299 M 1300 320.05 L 1281 320.05 L 1281 301.76 L 1300 301.76 L 1300 320.05 L 1300 320.05" fill="#2d5967" stroke="none" pointer-events="all"/></g><g><path d="M 1333 299 L 1308 299 L 1308 323 L 1333 323 L 1333 299 L 1333 299 M 1330 320.05 L 1311 320.05 L 1311 301.76 L 1330 301.76 L 1330 320.05 L 1330 320.05" fill="#2d5967" stroke="none" pointer-events="all"/></g><g><path d="M 1303 328 L 1278 328 L 1278 352 L 1303 352 L 1303 328 L 1303 328 M 1300 349.25 L 1281 349.25 L 1281 330.95 L 1300 330.95 L 1300 349.25 L 1300 349.25" fill="#2d5967" stroke="none" pointer-events="all"/></g><g><path d="M 1333 328 L 1308 328 L 1308 352 L 1333 352 L 1333 328 L 1333 328 M 1330 349.25 L 1311 349.25 L 1311 330.95 L 1330 330.95 L 1330 349.25 L 1330 349.25" fill="#2d5967" stroke="none" pointer-events="all"/></g><g><path d="M 1266 358.6 C 1266 360.4 1267.6 362 1269.39 362 L 1342.61 362 C 1344.4 362 1346 360.4 1346 358.6 L 1346 290 L 1266 290 L 1266 358.6 L 1266 358.6 M 1268.99 293 L 1342.81 293 L 1342.81 358.8 C 1342.81 359 1342.61 359.2 1342.41 359.2 L 1269.39 359.2 C 1269.19 359.2 1268.99 359 1268.99 358.8 L 1268.99 293 L 1268.99 293" fill="#2d5967" stroke="none" pointer-events="all"/></g><g><path d="M 1342.6 282 L 1269.4 282 C 1267.6 282 1266 283.38 1266 284.93 L 1266 287 L 1346 287 L 1346 284.93 C 1346 283.38 1344.4 282 1342.6 282 L 1342.6 282" fill="#2d5967" stroke="none" pointer-events="all"/></g><g><path d="M 1250 389 L 1363 389 L 1363 369 L 1250 369 L 1250 389" fill="none" stroke="none" pointer-events="all"/></g><g/><g><rect x="1424" y="280" width="84" height="84" fill="none" stroke="none" pointer-events="all"/></g><g><rect x="1424" y="280" width="84" height="84" fill="none" stroke="none" pointer-events="all"/></g><g><path d="M 1429.39 362.8 C 1426.99 362.8 1425 360.8 1425 358.41 L 1425 285.39 C 1425 282.99 1426.99 281 1429.39 281 L 1502.61 281 C 1505.01 281 1507 282.99 1507 285.39 L 1507 358.61 C 1507 361.01 1505.01 363 1502.61 363 L 1429.39 362.8 L 1429.39 362.8" fill="#ffffff" stroke="none" pointer-events="all"/></g><g><path d="M 1502.41 282 C 1504.21 282 1505.81 283.6 1505.81 285.4 L 1505.81 287.4 L 1505.81 287.8 L 1505.81 358.8 C 1505.81 360.6 1504.21 362.2 1502.41 362.2 L 1429.38 362.2 C 1427.6 362 1426 360.4 1426 358.6 L 1426 287.8 L 1426 287.2 L 1426 285.2 C 1426 283.6 1427.6 282 1429.38 282 L 1502.41 282 L 1502.41 282 M 1502.41 280 L 1429.38 280 C 1426.39 280 1424 282.4 1424 285.4 L 1424 287.4 L 1424 287.8 L 1424 358.8 C 1424 361.6 1426.39 364 1429.38 364 L 1502.62 364 C 1505.61 364 1508 361.6 1508 358.6 L 1508 287.8 L 1508 287.2 L 1508 285.2 C 1507.8 282.4 1505.4 280 1502.41 280 L 1502.41 280" fill="#ffffff" stroke="none" pointer-events="all"/></g><g><rect x="1426" y="282" width="80" height="80" fill="none" stroke="none" pointer-events="all"/></g><g><path d="M 1463 299 L 1438 299 L 1438 323 L 1463 323 L 1463 299 L 1463 299 M 1460 320.05 L 1441 320.05 L 1441 301.76 L 1460 301.76 L 1460 320.05 L 1460 320.05" fill="#2d5967" stroke="none" pointer-events="all"/></g><g><path d="M 1493 299 L 1468 299 L 1468 323 L 1493 323 L 1493 299 L 1493 299 M 1490 320.05 L 1471 320.05 L 1471 301.76 L 1490 301.76 L 1490 320.05 L 1490 320.05" fill="#2d5967" stroke="none" pointer-events="all"/></g><g><path d="M 1463 328 L 1438 328 L 1438 352 L 1463 352 L 1463 328 L 1463 328 M 1460 349.25 L 1441 349.25 L 1441 330.95 L 1460 330.95 L 1460 349.25 L 1460 349.25" fill="#2d5967" stroke="none" pointer-events="all"/></g><g><path d="M 1493 328 L 1468 328 L 1468 352 L 1493 352 L 1493 328 L 1493 328 M 1490 349.25 L 1471 349.25 L 1471 330.95 L 1490 330.95 L 1490 349.25 L 1490 349.25" fill="#2d5967" stroke="none" pointer-events="all"/></g><g><path d="M 1426 358.6 C 1426 360.4 1427.6 362 1429.39 362 L 1502.61 362 C 1504.4 362 1506 360.4 1506 358.6 L 1506 290 L 1426 290 L 1426 358.6 L 1426 358.6 M 1428.99 293 L 1502.81 293 L 1502.81 358.8 C 1502.81 359 1502.61 359.2 1502.41 359.2 L 1429.39 359.2 C 1429.19 359.2 1428.99 359 1428.99 358.8 L 1428.99 293 L 1428.99 293" fill="#2d5967" stroke="none" pointer-events="all"/></g><g><path d="M 1502.6 282 L 1429.4 282 C 1427.6 282 1426 283.38 1426 284.93 L 1426 287 L 1506 287 L 1506 284.93 C 1506 283.38 1504.4 282 1502.6 282 L 1502.6 282" fill="#2d5967" stroke="none" pointer-events="all"/></g><g><path d="M 1410 389 L 1523 389 L 1523 369 L 1410 369 L 1410 389" fill="none" stroke="none" pointer-events="all"/></g><g><rect x="1050" y="355" width="120" height="38" fill="none" stroke="none" pointer-events="all"/></g><g><g transform="translate(-0.5 -0.5)"><switch><foreignObject pointer-events="none" width="100%" height="100%" requiredFeatures="http://www.w3.org/TR/SVG11/feature#Extensibility" style="overflow: visible; text-align: left;"><div xmlns="http://www.w3.org/1999/xhtml" style="display: flex; align-items: unsafe flex-start; justify-content: unsafe center; width: 118px; height: 1px; padding-top: 362px; margin-left: 1051px;"><div data-drawio-colors="color: #312D2A; " style="box-sizing: border-box; font-size: 0px; text-align: center;"><div style="display: inline-block; font-size: 12px; font-family: Helvetica; color: rgb(49, 45, 42); line-height: 1.2; pointer-events: all; white-space: normal; overflow-wrap: normal;">Compute<br />instances</div></div></div></foreignObject><text x="1110" y="374" fill="#312D2A" font-family="Helvetica" font-size="12px" text-anchor="middle">Compute...</text></switch></g></g><g><rect x="1220" y="355" width="120" height="38" fill="none" stroke="none" pointer-events="all"/></g><g><g transform="translate(-0.5 -0.5)"><switch><foreignObject pointer-events="none" width="100%" height="100%" requiredFeatures="http://www.w3.org/TR/SVG11/feature#Extensibility" style="overflow: visible; text-align: left;"><div xmlns="http://www.w3.org/1999/xhtml" style="display: flex; align-items: unsafe flex-start; justify-content: unsafe center; width: 118px; height: 1px; padding-top: 362px; margin-left: 1221px;"><div data-drawio-colors="color: #312D2A; " style="box-sizing: border-box; font-size: 0px; text-align: center;"><div style="display: inline-block; font-size: 12px; font-family: Helvetica; color: rgb(49, 45, 42); line-height: 1.2; pointer-events: all; white-space: normal; overflow-wrap: normal;">Boot<br />volumes</div></div></div></foreignObject><text x="1280" y="374" fill="#312D2A" font-family="Helvetica" font-size="12px" text-anchor="middle">Boot...</text></switch></g></g><g><rect x="1380" y="355" width="120" height="38" fill="none" stroke="none" pointer-events="all"/></g><g><g transform="translate(-0.5 -0.5)"><switch><foreignObject pointer-events="none" width="100%" height="100%" requiredFeatures="http://www.w3.org/TR/SVG11/feature#Extensibility" style="overflow: visible; text-align: left;"><div xmlns="http://www.w3.org/1999/xhtml" style="display: flex; align-items: unsafe flex-start; justify-content: unsafe center; width: 118px; height: 1px; padding-top: 362px; margin-left: 1381px;"><div data-drawio-colors="color: #312D2A; " style="box-sizing: border-box; font-size: 0px; text-align: center;"><div style="display: inline-block; font-size: 12px; font-family: Helvetica; color: rgb(49, 45, 42); line-height: 1.2; pointer-events: all; white-space: normal; overflow-wrap: normal;">Block<br />volumes</div></div></div></foreignObject><text x="1440" y="374" fill="#312D2A" font-family="Helvetica" font-size="12px" text-anchor="middle">Block...</text></switch></g></g><g><rect x="850" y="475" width="700" height="285" rx="17.1" ry="17.1" fill="#fff9f7" stroke="#c74634" stroke-width="2" pointer-events="all"/></g><g><g transform="translate(-0.5 -0.5)"><switch><foreignObject pointer-events="none" width="100%" height="100%" requiredFeatures="http://www.w3.org/TR/SVG11/feature#Extensibility" style="overflow: visible; text-align: left;"><div xmlns="http://www.w3.org/1999/xhtml" style="display: flex; align-items: unsafe flex-start; justify-content: unsafe center; width: 698px; height: 1px; padding-top: 492px; margin-left: 851px;"><div data-drawio-colors="color: #312D2A; " style="box-sizing: border-box; font-size: 0px; text-align: center;"><div style="display: inline-block; font-size: 15px; font-family: Helvetica; color: rgb(49, 45, 42); line-height: 1.2; pointer-events: all; font-weight: bold; white-space: normal; overflow-wrap: normal;">Region B … N</div></div></div></foreignObject><text x="1200" y="507" fill="#312D2A" font-family="Helvetica" font-size="15px" text-anchor="middle" font-weight="bold">Region B … N</text></switch></g></g><g><rect x="875" y="503" width="105" height="30" rx="2.4" ry="2.4" fill="#c74634" stroke="#c74634" pointer-events="all"/></g><g><g transform="translate(-0.5 -0.5)"><switch><foreignObject pointer-events="none" width="100%" height="100%" requiredFeatures="http://www.w3.org/TR/SVG11/feature#Extensibility" style="overflow: visible; text-align: left;"><div xmlns="http://www.w3.org/1999/xhtml" style="display: flex; align-items: unsafe center; justify-content: unsafe center; width: 103px; height: 1px; padding-top: 518px; margin-left: 876px;"><div data-drawio-colors="color: #FFFFFF; " style="box-sizing: border-box; font-size: 0px; text-align: center;"><div style="display: inline-block; font-size: 12px; font-family: Helvetica; color: rgb(255, 255, 255); line-height: 1.2; pointer-events: all; font-weight: bold; white-space: normal; overflow-wrap: normal;">OCI REGION</div></div></div></foreignObject><text x="928" y="522" fill="#FFFFFF" font-family="Helvetica" font-size="12px" text-anchor="middle" font-weight="bold">OCI REGION</text></switch></g></g><g><rect x="1095" y="510" width="235" height="32" rx="16" ry="16" fill="#f3f2f1" stroke="#aea8a3" pointer-events="all"/></g><g><g transform="translate(-0.5 -0.5)"><switch><foreignObject pointer-events="none" width="100%" height="100%" requiredFeatures="http://www.w3.org/TR/SVG11/feature#Extensibility" style="overflow: visible; text-align: left;"><div xmlns="http://www.w3.org/1999/xhtml" style="display: flex; align-items: unsafe center; justify-content: unsafe center; width: 233px; height: 1px; padding-top: 526px; margin-left: 1096px;"><div data-drawio-colors="color: #312D2A; " style="box-sizing: border-box; font-size: 0px; text-align: center;"><div style="display: inline-block; font-size: 12px; font-family: Helvetica; color: rgb(49, 45, 42); line-height: 1.2; pointer-events: all; white-space: normal; overflow-wrap: normal;">Resource workers (default: 5)</div></div></div></foreignObject><text x="1213" y="530" fill="#312D2A" font-family="Helvetica" font-size="12px" text-anchor="middle">Resource workers (default: 5)</text></switch></g></g><g><rect x="925" y="565" width="575" height="155" rx="6.2" ry="6.2" fill="#ffffff" stroke="#76706b" stroke-dasharray="3 3" pointer-events="all"/></g><g><g transform="translate(-0.5 -0.5)"><switch><foreignObject pointer-events="none" width="100%" height="100%" requiredFeatures="http://www.w3.org/TR/SVG11/feature#Extensibility" style="overflow: visible; text-align: left;"><div xmlns="http://www.w3.org/1999/xhtml" style="display: flex; align-items: unsafe flex-start; justify-content: unsafe center; width: 573px; height: 1px; padding-top: 580px; margin-left: 926px;"><div data-drawio-colors="color: #312D2A; " style="box-sizing: border-box; font-size: 0px; text-align: center;"><div style="display: inline-block; font-size: 13px; font-family: Helvetica; color: rgb(49, 45, 42); line-height: 1.2; pointer-events: all; font-weight: bold; white-space: normal; overflow-wrap: normal;">Target compartment</div></div></div></foreignObject><text x="1213" y="593" fill="#312D2A" font-family="Helvetica" font-size="13px" text-anchor="middle" font-weight="bold">Target compartment</text></switch></g></g><g><rect x="945" y="600" width="84" height="67" fill="none" stroke="none" pointer-events="all"/></g><g><path d="M 945 665.84 L 945 604.66 C 945 602.09 947.09 600 949.66 600 L 970.74 600 C 972.19 600 973.63 600.64 974.44 601.93 L 978.78 607.71 L 1023.34 607.71 C 1025.91 607.71 1028 609.79 1028 612.36 L 1028 666 L 945 666 L 945 665.84 L 945 665.84" fill="#ffffff" stroke="none" pointer-events="all"/></g><g><path d="M 971.4 601.59 C 972.52 601.59 973.8 602.23 974.44 603.19 L 978.91 609.25 L 1023.57 609.25 C 1025.64 609.25 1027.4 611.01 1027.4 613.08 L 1027.4 665.41 L 946.6 665.41 L 946.6 605.43 C 946.6 603.35 948.36 601.59 950.44 601.59 L 971.4 601.59 L 971.4 601.59 M 971.4 600 L 950.44 600 C 947.4 600 945 602.39 945 605.43 L 945 665.41 L 945 667 L 946.6 667 L 1027.4 667 L 1029 667 L 1029 665.41 L 1029 612.92 C 1029 609.89 1026.6 607.5 1023.57 607.5 L 979.73 607.5 L 975.73 602.08 C 974.6 600.8 973.01 600 971.4 600 L 971.4 600" fill="#ffffff" stroke="none" pointer-events="all"/></g><g><path d="M 1023.14 608.68 L 978.39 608.68 L 973.91 602.6 C 973.27 601.64 972.15 601 970.86 601 L 949.86 601 C 947.77 601 946 602.76 946 604.84 L 946 665 L 1027 665 L 1027 612.36 C 1027 610.28 1025.23 608.68 1023.14 608.68 L 1023.14 608.68 M 1023.46 661.64 L 949.37 661.64 L 949.37 604.84 C 949.37 604.68 949.54 604.36 949.86 604.36 L 970.86 604.36 C 971.02 604.36 971.18 604.36 971.18 604.52 L 976.8 612.04 L 1023.31 612.04 C 1023.46 612.04 1023.79 612.2 1023.79 612.52 L 1023.46 661.64 L 1023.46 661.64" fill="#2d5967" stroke="none" pointer-events="all"/></g><g><path d="M 958.79 621 L 962.04 621 L 962.04 616.2 L 967 616.2 L 967 612.95 L 962.04 612.95 L 962.04 608 L 958.79 608 L 958.79 612.95 L 954 612.95 L 954 616.2 L 958.79 616.2 L 958.79 621 L 958.79 621" fill="#2d5967" stroke="none" pointer-events="all"/></g><g><path d="M 1009.66 635.21 L 1006.85 630 L 1004.04 635.21 L 999.66 643.11 L 997 648 L 1002.62 648 L 1011.38 648 L 1017 648 L 1014.19 643.11 L 1009.66 635.21 L 1009.66 635.21 M 1002.47 644.84 L 1006.85 636.95 L 1011.22 644.84 L 1002.47 644.84 L 1002.47 644.84" fill="#2d5967" stroke="none" pointer-events="all"/></g><g><path d="M 992.49 632.25 C 991.04 631.47 989.43 631 987.82 631 C 987.18 631 986.37 631 985.73 631.16 C 980.9 632.25 978 636.93 979.13 641.45 C 980.09 645.35 983.63 648 987.82 648 C 988.46 648 989.27 648 989.92 647.84 C 992.17 647.38 994.1 645.97 995.39 643.95 C 996.68 642.07 997 639.73 996.51 637.4 C 995.87 635.37 994.42 633.5 992.49 632.25 L 992.49 632.25 M 992.49 642.38 C 991.68 643.63 990.56 644.41 989.11 644.72 C 988.63 644.88 988.3 644.88 987.82 644.88 C 985.41 644.88 982.99 643.17 982.51 640.83 C 981.87 638.02 983.63 635.05 986.54 634.43 C 987.01 634.28 987.34 634.28 987.82 634.28 C 988.79 634.28 989.75 634.59 990.72 635.05 C 992.01 635.83 992.82 636.93 993.13 638.33 C 993.46 639.73 993.13 641.14 992.49 642.38 L 992.49 642.38" fill="#2d5967" stroke="none" pointer-events="all"/></g><g><path d="M 971.97 632.57 L 970.99 631 L 969.07 631 L 962.93 631 L 961.01 631 L 960.03 632.57 L 956.97 637.77 L 956 639.5 L 956.97 641.23 L 960.03 646.43 L 961.01 648 L 962.93 648 L 969.07 648 L 970.99 648 L 971.97 646.43 L 975.03 641.23 L 976 639.5 L 975.2 637.77 L 971.97 632.57 L 971.97 632.57 M 969.07 644.7 L 962.93 644.7 L 959.87 639.5 L 962.93 634.3 L 969.07 634.3 L 972.13 639.5 L 969.07 644.7 L 969.07 644.7" fill="#2d5967" stroke="none" pointer-events="all"/></g><g><path d="M 0 67 L 134 67 L 134 47 L 0 47 L 0 67" fill="none" stroke="none" pointer-events="all"/></g><g/><g><rect x="1080" y="605" width="84" height="84" fill="none" stroke="none" pointer-events="all"/></g><g><rect x="1080" y="605" width="84" height="84" fill="none" stroke="none" pointer-events="all"/></g><g><path d="M 1085.39 687.8 C 1082.99 687.8 1081 685.8 1081 683.41 L 1081 610.39 C 1081 607.99 1082.99 606 1085.39 606 L 1158.61 606 C 1161.01 606 1163 607.99 1163 610.39 L 1163 683.61 C 1163 686.01 1161.01 688 1158.61 688 L 1085.39 687.8 L 1085.39 687.8" fill="#ffffff" stroke="none" pointer-events="all"/></g><g><path d="M 1158.41 607 C 1160.21 607 1161.81 608.6 1161.81 610.4 L 1161.81 683.8 C 1161.81 685.6 1160.21 687.2 1158.41 687.2 L 1085.38 687.2 C 1083.59 687 1081.99 685.4 1081.99 683.6 L 1081.99 610.4 C 1081.99 608.6 1083.59 607 1085.38 607 L 1158.41 607 L 1158.41 607 M 1158.41 605 L 1085.38 605 C 1082.39 605 1080 607.4 1080 610.4 L 1080 683.8 C 1080 686.6 1082.39 689 1085.38 689 L 1158.62 689 C 1161.61 689 1164 686.6 1164 683.6 L 1164 610.4 C 1163.8 607.4 1161.4 605 1158.41 605 L 1158.41 605" fill="#ffffff" stroke="none" pointer-events="all"/></g><g><rect x="1082" y="607" width="80" height="80" fill="none" stroke="none" pointer-events="all"/></g><g><path d="M 1158.41 607 L 1085.39 607 C 1083.59 607 1082 608.6 1082 610.4 L 1082 683.8 C 1082 685.4 1083.59 687 1085.39 687 L 1158.61 687 C 1160.41 687 1162 685.4 1162 683.6 L 1162 610.4 C 1161.8 608.6 1160.21 607 1158.41 607 L 1158.41 607 M 1158.81 683.6 C 1158.81 683.8 1158.61 684 1158.41 684 L 1085.39 684 C 1085.19 684 1084.99 683.8 1084.99 683.6 L 1084.99 610.4 C 1084.99 610.2 1085.19 610 1085.39 610 L 1158.61 610 C 1158.81 610 1159.01 610.2 1159.01 610.4 L 1158.81 683.6 L 1158.81 683.6" fill="#2d5967" stroke="none" pointer-events="all"/></g><g><path d="M 1093 675 L 1151 675 L 1151 658 L 1093 658 L 1093 675 L 1093 675 M 1095.79 660.86 L 1147.81 660.86 L 1147.81 672.33 L 1095.79 672.33 L 1095.79 660.86 L 1095.79 660.86" fill="#2d5967" stroke="none" pointer-events="all"/></g><g><path d="M 1141 669 C 1142.1 669 1143 668.1 1143 667 C 1143 665.9 1142.1 665 1141 665 C 1139.89 665 1139 665.9 1139 667 C 1139 668.1 1139.89 669 1141 669 L 1141 669" fill="#2d5967" stroke="none" pointer-events="all"/></g><g><path d="M 1109.81 618 L 1093 618 L 1093 635 L 1110 635 L 1109.81 618 L 1109.81 618 M 1107.13 632.14 L 1095.67 632.14 L 1095.67 620.67 L 1107.13 620.67 L 1107.13 632.14 L 1107.13 632.14" fill="#2d5967" stroke="none" pointer-events="all"/></g><g><path d="M 1130 618 L 1113 618 L 1113 635 L 1130 635 L 1130 618 L 1130 618 M 1127.33 632.14 L 1115.87 632.14 L 1115.87 620.67 L 1127.33 620.67 L 1127.33 632.14 L 1127.33 632.14" fill="#2d5967" stroke="none" pointer-events="all"/></g><g><path d="M 1109.81 638 L 1093 638 L 1093 655 L 1110 655 L 1109.81 638 L 1109.81 638 M 1107.13 652.14 L 1095.67 652.14 L 1095.67 640.67 L 1107.13 640.67 L 1107.13 652.14 L 1107.13 652.14" fill="#2d5967" stroke="none" pointer-events="all"/></g><g><path d="M 1130 638 L 1113 638 L 1113 655 L 1130 655 L 1130 638 L 1130 638 M 1127.33 652.14 L 1115.87 652.14 L 1115.87 640.67 L 1127.33 640.67 L 1127.33 652.14 L 1127.33 652.14" fill="#2d5967" stroke="none" pointer-events="all"/></g><g><path d="M 1150 618 L 1133 618 L 1133 635 L 1150 635 L 1150 618 L 1150 618 M 1147.33 632.14 L 1135.87 632.14 L 1135.87 620.67 L 1147.33 620.67 L 1147.33 632.14 L 1147.33 632.14" fill="#2d5967" stroke="none" pointer-events="all"/></g><g><path d="M 1150 638 L 1133 638 L 1133 655 L 1150 655 L 1150 638 L 1150 638 M 1147.33 652.14 L 1135.87 652.14 L 1135.87 640.67 L 1147.33 640.67 L 1147.33 652.14 L 1147.33 652.14" fill="#2d5967" stroke="none" pointer-events="all"/></g><g><path d="M 1084 735 L 1160 735 L 1160 694 L 1084 694 L 1084 735" fill="none" stroke="none" pointer-events="all"/></g><g/><g><rect x="1264" y="605" width="84" height="84" fill="none" stroke="none" pointer-events="all"/></g><g><rect x="1264" y="605" width="84" height="84" fill="none" stroke="none" pointer-events="all"/></g><g><path d="M 1269.39 687.8 C 1266.99 687.8 1265 685.8 1265 683.41 L 1265 610.39 C 1265 607.99 1266.99 606 1269.39 606 L 1342.61 606 C 1345.01 606 1347 607.99 1347 610.39 L 1347 683.61 C 1347 686.01 1345.01 688 1342.61 688 L 1269.39 687.8 L 1269.39 687.8" fill="#ffffff" stroke="none" pointer-events="all"/></g><g><path d="M 1342.41 607 C 1344.21 607 1345.81 608.6 1345.81 610.4 L 1345.81 612.4 L 1345.81 612.8 L 1345.81 683.8 C 1345.81 685.6 1344.21 687.2 1342.41 687.2 L 1269.38 687.2 C 1267.6 687 1266 685.4 1266 683.6 L 1266 612.8 L 1266 612.2 L 1266 610.2 C 1266 608.6 1267.6 607 1269.38 607 L 1342.41 607 L 1342.41 607 M 1342.41 605 L 1269.38 605 C 1266.39 605 1264 607.4 1264 610.4 L 1264 612.4 L 1264 612.8 L 1264 683.8 C 1264 686.6 1266.39 689 1269.38 689 L 1342.62 689 C 1345.61 689 1348 686.6 1348 683.6 L 1348 612.8 L 1348 612.2 L 1348 610.2 C 1347.8 607.4 1345.4 605 1342.41 605 L 1342.41 605" fill="#ffffff" stroke="none" pointer-events="all"/></g><g><rect x="1266" y="607" width="80" height="80" fill="none" stroke="none" pointer-events="all"/></g><g><path d="M 1303 624 L 1278 624 L 1278 648 L 1303 648 L 1303 624 L 1303 624 M 1300 645.05 L 1281 645.05 L 1281 626.76 L 1300 626.76 L 1300 645.05 L 1300 645.05" fill="#2d5967" stroke="none" pointer-events="all"/></g><g><path d="M 1333 624 L 1308 624 L 1308 648 L 1333 648 L 1333 624 L 1333 624 M 1330 645.05 L 1311 645.05 L 1311 626.76 L 1330 626.76 L 1330 645.05 L 1330 645.05" fill="#2d5967" stroke="none" pointer-events="all"/></g><g><path d="M 1303 653 L 1278 653 L 1278 677 L 1303 677 L 1303 653 L 1303 653 M 1300 674.25 L 1281 674.25 L 1281 655.95 L 1300 655.95 L 1300 674.25 L 1300 674.25" fill="#2d5967" stroke="none" pointer-events="all"/></g><g><path d="M 1333 653 L 1308 653 L 1308 677 L 1333 677 L 1333 653 L 1333 653 M 1330 674.25 L 1311 674.25 L 1311 655.95 L 1330 655.95 L 1330 674.25 L 1330 674.25" fill="#2d5967" stroke="none" pointer-events="all"/></g><g><path d="M 1266 683.6 C 1266 685.4 1267.6 687 1269.39 687 L 1342.61 687 C 1344.4 687 1346 685.4 1346 683.6 L 1346 615 L 1266 615 L 1266 683.6 L 1266 683.6 M 1268.99 618 L 1342.81 618 L 1342.81 683.8 C 1342.81 684 1342.61 684.2 1342.41 684.2 L 1269.39 684.2 C 1269.19 684.2 1268.99 684 1268.99 683.8 L 1268.99 618 L 1268.99 618" fill="#2d5967" stroke="none" pointer-events="all"/></g><g><path d="M 1342.6 607 L 1269.4 607 C 1267.6 607 1266 608.38 1266 609.93 L 1266 612 L 1346 612 L 1346 609.93 C 1346 608.38 1344.4 607 1342.6 607 L 1342.6 607" fill="#2d5967" stroke="none" pointer-events="all"/></g><g><path d="M 1250 714 L 1363 714 L 1363 694 L 1250 694 L 1250 714" fill="none" stroke="none" pointer-events="all"/></g><g/><g><rect x="1424" y="605" width="84" height="84" fill="none" stroke="none" pointer-events="all"/></g><g><rect x="1424" y="605" width="84" height="84" fill="none" stroke="none" pointer-events="all"/></g><g><path d="M 1429.39 687.8 C 1426.99 687.8 1425 685.8 1425 683.41 L 1425 610.39 C 1425 607.99 1426.99 606 1429.39 606 L 1502.61 606 C 1505.01 606 1507 607.99 1507 610.39 L 1507 683.61 C 1507 686.01 1505.01 688 1502.61 688 L 1429.39 687.8 L 1429.39 687.8" fill="#ffffff" stroke="none" pointer-events="all"/></g><g><path d="M 1502.41 607 C 1504.21 607 1505.81 608.6 1505.81 610.4 L 1505.81 612.4 L 1505.81 612.8 L 1505.81 683.8 C 1505.81 685.6 1504.21 687.2 1502.41 687.2 L 1429.38 687.2 C 1427.6 687 1426 685.4 1426 683.6 L 1426 612.8 L 1426 612.2 L 1426 610.2 C 1426 608.6 1427.6 607 1429.38 607 L 1502.41 607 L 1502.41 607 M 1502.41 605 L 1429.38 605 C 1426.39 605 1424 607.4 1424 610.4 L 1424 612.4 L 1424 612.8 L 1424 683.8 C 1424 686.6 1426.39 689 1429.38 689 L 1502.62 689 C 1505.61 689 1508 686.6 1508 683.6 L 1508 612.8 L 1508 612.2 L 1508 610.2 C 1507.8 607.4 1505.4 605 1502.41 605 L 1502.41 605" fill="#ffffff" stroke="none" pointer-events="all"/></g><g><rect x="1426" y="607" width="80" height="80" fill="none" stroke="none" pointer-events="all"/></g><g><path d="M 1463 624 L 1438 624 L 1438 648 L 1463 648 L 1463 624 L 1463 624 M 1460 645.05 L 1441 645.05 L 1441 626.76 L 1460 626.76 L 1460 645.05 L 1460 645.05" fill="#2d5967" stroke="none" pointer-events="all"/></g><g><path d="M 1493 624 L 1468 624 L 1468 648 L 1493 648 L 1493 624 L 1493 624 M 1490 645.05 L 1471 645.05 L 1471 626.76 L 1490 626.76 L 1490 645.05 L 1490 645.05" fill="#2d5967" stroke="none" pointer-events="all"/></g><g><path d="M 1463 653 L 1438 653 L 1438 677 L 1463 677 L 1463 653 L 1463 653 M 1460 674.25 L 1441 674.25 L 1441 655.95 L 1460 655.95 L 1460 674.25 L 1460 674.25" fill="#2d5967" stroke="none" pointer-events="all"/></g><g><path d="M 1493 653 L 1468 653 L 1468 677 L 1493 677 L 1493 653 L 1493 653 M 1490 674.25 L 1471 674.25 L 1471 655.95 L 1490 655.95 L 1490 674.25 L 1490 674.25" fill="#2d5967" stroke="none" pointer-events="all"/></g><g><path d="M 1426 683.6 C 1426 685.4 1427.6 687 1429.39 687 L 1502.61 687 C 1504.4 687 1506 685.4 1506 683.6 L 1506 615 L 1426 615 L 1426 683.6 L 1426 683.6 M 1428.99 618 L 1502.81 618 L 1502.81 683.8 C 1502.81 684 1502.61 684.2 1502.41 684.2 L 1429.39 684.2 C 1429.19 684.2 1428.99 684 1428.99 683.8 L 1428.99 618 L 1428.99 618" fill="#2d5967" stroke="none" pointer-events="all"/></g><g><path d="M 1502.6 607 L 1429.4 607 C 1427.6 607 1426 608.38 1426 609.93 L 1426 612 L 1506 612 L 1506 609.93 C 1506 608.38 1504.4 607 1502.6 607 L 1502.6 607" fill="#2d5967" stroke="none" pointer-events="all"/></g><g><path d="M 1410 714 L 1523 714 L 1523 694 L 1410 694 L 1410 714" fill="none" stroke="none" pointer-events="all"/></g><g><rect x="1050" y="680" width="120" height="38" fill="none" stroke="none" pointer-events="all"/></g><g><g transform="translate(-0.5 -0.5)"><switch><foreignObject pointer-events="none" width="100%" height="100%" requiredFeatures="http://www.w3.org/TR/SVG11/feature#Extensibility" style="overflow: visible; text-align: left;"><div xmlns="http://www.w3.org/1999/xhtml" style="display: flex; align-items: unsafe flex-start; justify-content: unsafe center; width: 118px; height: 1px; padding-top: 687px; margin-left: 1051px;"><div data-drawio-colors="color: #312D2A; " style="box-sizing: border-box; font-size: 0px; text-align: center;"><div style="display: inline-block; font-size: 12px; font-family: Helvetica; color: rgb(49, 45, 42); line-height: 1.2; pointer-events: all; white-space: normal; overflow-wrap: normal;">Compute<br />instances</div></div></div></foreignObject><text x="1110" y="699" fill="#312D2A" font-family="Helvetica" font-size="12px" text-anchor="middle">Compute...</text></switch></g></g><g><rect x="1220" y="680" width="120" height="38" fill="none" stroke="none" pointer-events="all"/></g><g><g transform="translate(-0.5 -0.5)"><switch><foreignObject pointer-events="none" width="100%" height="100%" requiredFeatures="http://www.w3.org/TR/SVG11/feature#Extensibility" style="overflow: visible; text-align: left;"><div xmlns="http://www.w3.org/1999/xhtml" style="display: flex; align-items: unsafe flex-start; justify-content: unsafe center; width: 118px; height: 1px; padding-top: 687px; margin-left: 1221px;"><div data-drawio-colors="color: #312D2A; " style="box-sizing: border-box; font-size: 0px; text-align: center;"><div style="display: inline-block; font-size: 12px; font-family: Helvetica; color: rgb(49, 45, 42); line-height: 1.2; pointer-events: all; white-space: normal; overflow-wrap: normal;">Boot<br />volumes</div></div></div></foreignObject><text x="1280" y="699" fill="#312D2A" font-family="Helvetica" font-size="12px" text-anchor="middle">Boot...</text></switch></g></g><g><rect x="1380" y="680" width="120" height="38" fill="none" stroke="none" pointer-events="all"/></g><g><g transform="translate(-0.5 -0.5)"><switch><foreignObject pointer-events="none" width="100%" height="100%" requiredFeatures="http://www.w3.org/TR/SVG11/feature#Extensibility" style="overflow: visible; text-align: left;"><div xmlns="http://www.w3.org/1999/xhtml" style="display: flex; align-items: unsafe flex-start; justify-content: unsafe center; width: 118px; height: 1px; padding-top: 687px; margin-left: 1381px;"><div data-drawio-colors="color: #312D2A; " style="box-sizing: border-box; font-size: 0px; text-align: center;"><div style="display: inline-block; font-size: 12px; font-family: Helvetica; color: rgb(49, 45, 42); line-height: 1.2; pointer-events: all; white-space: normal; overflow-wrap: normal;">Block<br />volumes</div></div></div></foreignObject><text x="1440" y="699" fill="#312D2A" font-family="Helvetica" font-size="12px" text-anchor="middle">Block...</text></switch></g></g><g><rect x="840" y="820" width="730" height="48" rx="3.84" ry="3.84" fill="#f8f7f6" stroke="#b7b1ac" pointer-events="all"/></g><g><g transform="translate(-0.5 -0.5)"><switch><foreignObject pointer-events="none" width="100%" height="100%" requiredFeatures="http://www.w3.org/TR/SVG11/feature#Extensibility" style="overflow: visible; text-align: left;"><div xmlns="http://www.w3.org/1999/xhtml" style="display: flex; align-items: unsafe flex-start; justify-content: unsafe center; width: 728px; height: 1px; padding-top: 839px; margin-left: 841px;"><div data-drawio-colors="color: #312D2A; " style="box-sizing: border-box; font-size: 0px; text-align: center;"><div style="display: inline-block; font-size: 14px; font-family: Helvetica; color: rgb(49, 45, 42); line-height: 1.2; pointer-events: all; font-weight: bold; white-space: normal; overflow-wrap: normal;">For each resource: GET current tags + ETag → merge requested tags → dry-run or UPDATE with If-Match</div></div></div></foreignObject><text x="1205" y="853" fill="#312D2A" font-family="Helvetica" font-size="14px" text-anchor="middle" font-weight="bold">For each resource: GET current tags + ETag → merge requested tags → dry-run or UPDATE with If-Match</text></switch></g></g><g><path d="M 151 222 L 175.5 222 Q 185.5 222 185.5 214.75 L 185.5 211.13 Q 185.5 207.5 195.5 207.5 L 209.76 207.5" fill="none" stroke="#312d2a" stroke-width="2" stroke-miterlimit="10" pointer-events="stroke"/><path d="M 217.76 207.5 L 209.76 211.5 L 209.76 203.5 Z" fill="#312d2a" stroke="#312d2a" stroke-width="2" stroke-miterlimit="10" pointer-events="all"/></g><g><g transform="translate(-0.5 -0.5)"><switch><foreignObject pointer-events="none" width="100%" height="100%" requiredFeatures="http://www.w3.org/TR/SVG11/feature#Extensibility" style="overflow: visible; text-align: left;"><div xmlns="http://www.w3.org/1999/xhtml" style="display: flex; align-items: unsafe center; justify-content: unsafe center; width: 1px; height: 1px; padding-top: 215px; margin-left: 186px;"><div data-drawio-colors="color: rgb(0, 0, 0); background-color: rgb(255, 255, 255); " style="box-sizing: border-box; font-size: 0px; text-align: center;"><div style="display: inline-block; font-size: 12px; font-family: Helvetica; color: rgb(0, 0, 0); line-height: 1.2; pointer-events: all; background-color: rgb(255, 255, 255); white-space: nowrap;">Run</div></div></div></foreignObject><text x="186" y="218" fill="rgb(0, 0, 0)" font-family="Helvetica" font-size="12px" text-anchor="middle">Run</text></switch></g></g><g><path d="M 470 207.5 L 505 207.5 Q 515 207.5 515 197.5 L 515 174.5 Q 515 164.5 525 164.5 L 549.76 164.5" fill="none" stroke="#312d2a" stroke-width="2" stroke-miterlimit="10" pointer-events="stroke"/><path d="M 557.76 164.5 L 549.76 168.5 L 549.76 160.5 Z" fill="#312d2a" stroke="#312d2a" stroke-width="2" stroke-miterlimit="10" pointer-events="all"/></g><g><g transform="translate(-0.5 -0.5)"><switch><foreignObject pointer-events="none" width="100%" height="100%" requiredFeatures="http://www.w3.org/TR/SVG11/feature#Extensibility" style="overflow: visible; text-align: left;"><div xmlns="http://www.w3.org/1999/xhtml" style="display: flex; align-items: unsafe center; justify-content: unsafe center; width: 1px; height: 1px; padding-top: 186px; margin-left: 515px;"><div data-drawio-colors="color: rgb(0, 0, 0); background-color: rgb(255, 255, 255); " style="box-sizing: border-box; font-size: 0px; text-align: center;"><div style="display: inline-block; font-size: 12px; font-family: Helvetica; color: rgb(0, 0, 0); line-height: 1.2; pointer-events: all; background-color: rgb(255, 255, 255); white-space: nowrap;">Authenticate</div></div></div></foreignObject><text x="515" y="189" fill="rgb(0, 0, 0)" font-family="Helvetica" font-size="12px" text-anchor="middle">Authenticate</text></switch></g></g><g><path d="M 602 204 L 602 257 Q 602 267 612 267 L 635 267 Q 645 267 645 277 L 645 319.76" fill="none" stroke="#312d2a" stroke-width="2" stroke-miterlimit="10" pointer-events="stroke"/><path d="M 645 327.76 L 641 319.76 L 649 319.76 Z" fill="#312d2a" stroke="#312d2a" stroke-width="2" stroke-miterlimit="10" pointer-events="all"/></g><g><g transform="translate(-0.5 -0.5)"><switch><foreignObject pointer-events="none" width="100%" height="100%" requiredFeatures="http://www.w3.org/TR/SVG11/feature#Extensibility" style="overflow: visible; text-align: left;"><div xmlns="http://www.w3.org/1999/xhtml" style="display: flex; align-items: unsafe center; justify-content: unsafe center; width: 1px; height: 1px; padding-top: 267px; margin-left: 624px;"><div data-drawio-colors="color: rgb(0, 0, 0); background-color: rgb(255, 255, 255); " style="box-sizing: border-box; font-size: 0px; text-align: center;"><div style="display: inline-block; font-size: 12px; font-family: Helvetica; color: rgb(0, 0, 0); line-height: 1.2; pointer-events: all; background-color: rgb(255, 255, 255); white-space: nowrap;">Inspect tenancy</div></div></div></foreignObject><text x="624" y="271" fill="rgb(0, 0, 0)" font-family="Helvetica" font-size="12px" text-anchor="middle">Inspect tenancy</text></switch></g></g><g><path d="M 755 367.5 L 772.5 367.5 Q 782.5 367.5 782.5 377.5 L 782.5 430 Q 782.5 440 791.13 440 L 799.76 440" fill="none" stroke="#312d2a" stroke-width="2" stroke-miterlimit="10" pointer-events="stroke"/><path d="M 807.76 440 L 799.76 444 L 799.76 436 Z" fill="#312d2a" stroke="#312d2a" stroke-width="2" stroke-miterlimit="10" pointer-events="all"/></g><g><g transform="translate(-0.5 -0.5)"><switch><foreignObject pointer-events="none" width="100%" height="100%" requiredFeatures="http://www.w3.org/TR/SVG11/feature#Extensibility" style="overflow: visible; text-align: left;"><div xmlns="http://www.w3.org/1999/xhtml" style="display: flex; align-items: unsafe center; justify-content: unsafe center; width: 1px; height: 1px; padding-top: 404px; margin-left: 783px;"><div data-drawio-colors="color: rgb(0, 0, 0); background-color: rgb(255, 255, 255); " style="box-sizing: border-box; font-size: 0px; text-align: center;"><div style="display: inline-block; font-size: 12px; font-family: Helvetica; color: rgb(0, 0, 0); line-height: 1.2; pointer-events: all; background-color: rgb(255, 255, 255); white-space: nowrap;">Dispatch</div></div></div></foreignObject><text x="783" y="408" fill="rgb(0, 0, 0)" font-family="Helvetica" font-size="12px" text-anchor="middle">Dispatch</text></switch></g></g></g><switch><g requiredFeatures="http://www.w3.org/TR/SVG11/feature#Extensibility"/><a transform="translate(0,-5)" xlink:href="https://www.drawio.com/doc/faq/svg-export-text-problems" target="_blank"><text text-anchor="middle" font-size="10px" x="50%" y="100%">Text is not SVG - cannot display</text></a></switch></svg>